<svg id="Layer_1" data-name="Layer 1" xmlns="http://www.w3.org/2000/svg" viewBox="0 0 354.26 341.92"><defs><style>.cls-1,.cls-2,.cls-3,.cls-4{fill:none;stroke-width:5px;}.cls-1{stroke:#be1e2d;}.cls-1,.cls-2{stroke-miterlimit:10;}.cls-2,.cls-3{stroke:#231f20;}.cls-3,.cls-4{stroke-linecap:round;stroke-linejoin:round;}.cls-4{stroke:#2e3192;}</style></defs><title>baseball_colour</title><g id="ball"><path class="cls-1" d="M2.5,181.68S13.11,192,31.72,194.74s16.71,26.77,16.71,26.77"/><path class="cls-1" d="M82.52,187.68s-25.61,2.13-26.25-13.53c-.79-19.4-13.54-32.7-13.54-32.7"/><circle class="cls-2" cx="42.73" cy="181.68" r="40.23"/></g><polyline class="cls-3" points="25.49 23.37 18.99 30.86 31.2 42.8"/><line class="cls-3" x1="41.19" y1="52.79" x2="138.33" y2="143.54"/><line class="cls-3" x1="158.03" y1="162.69" x2="206.6" y2="203.49"/><line class="cls-4" x1="244.93" y1="250.33" x2="252.91" y2="226.11"/><line class="cls-4" x1="269.42" y1="243.74" x2="261.94" y2="265.83"/><line class="cls-4" x1="286.12" y1="260.96" x2="279.11" y2="281.69"/><line class="cls-4" x1="302.47" y1="277.08" x2="295.81" y2="297.34"/><path class="cls-3" d="M251.4,224.47s-12.32,10.75-16.07,17.23"/><line class="cls-3" x1="241.5" y1="234" x2="218.46" y2="213.25"/><path class="cls-3" d="M313.43,314.07S193.82,199.06,148,170.7,8.66,43.25,8.66,43.25-4,25.88,15,9.69s33.5,0,33.5,0l130.3,131.76s90,109.06,149.26,158.8c0,0,12.93-5.33,18.32.06s7.67,10.57,2.48,19.27-19.06,24.24-29,18.65-8.49-25.49-1.86-30.67"/></svg>