<svg id="Layer_4" data-name="Layer 4" xmlns="http://www.w3.org/2000/svg" xmlns:xlink="http://www.w3.org/1999/xlink" viewBox="0 0 421.96 327.56"><defs><style>.cls-1{fill:url(#linear-gradient);}.cls-2{fill:#ababab;opacity:0.78;}.cls-3{fill:#231f20;}.cls-4{fill:#e4c69b;}.cls-5{fill:#a5a4a4;}.cls-6{fill:#e83434;}.cls-7{fill:#7ad0e8;}.cls-8{fill:#fff;}.cls-9{fill:#35b44a;}.cls-10{fill:#e78a24;}.cls-11{fill:#1c7b3d;}.cls-12{fill:#434ca0;}.cls-13{fill:#42bb95;}.cls-14{fill:#894f9f;}</style><linearGradient id="linear-gradient" x1="211.66" y1="9.21" x2="211.66" y2="245.05" gradientUnits="userSpaceOnUse"><stop offset="0" stop-color="#00aeef"/><stop offset="0.16" stop-color="#0b91d7"/><stop offset="0.41" stop-color="#196bb9"/><stop offset="0.64" stop-color="#2350a2"/><stop offset="0.85" stop-color="#293f95"/><stop offset="1" stop-color="#2b3990"/></linearGradient></defs><title>y</title><g id="Layer_5" data-name="Layer 5"><rect class="cls-1" x="9.95" y="9.21" width="403.42" height="235.84"/><rect class="cls-2" x="19.76" y="208.59" width="382.07" height="25.1" rx="3.78"/></g><path class="cls-3" d="M414.14,0H7.82A7.82,7.82,0,0,0,0,7.82V249.38a7.82,7.82,0,0,0,7.82,7.81H414.14a7.82,7.82,0,0,0,7.82-7.81V7.82A7.82,7.82,0,0,0,414.14,0Zm-9.2,233.92a2.86,2.86,0,0,1-2.86,2.86H19.77a2.86,2.86,0,0,1-2.86-2.86V19.56a2.86,2.86,0,0,1,2.86-2.86H402.08a2.86,2.86,0,0,1,2.86,2.86Z"/><path class="cls-3" d="M170,265h81.46s3.37,34.55,8.14,38.48,13.77,13.77,13.77,13.77v5.61H203.4Z"/><path class="cls-3" d="M251,265H169.58s-3.37,34.55-8.15,38.48-13.76,13.77-13.76,13.77v5.61h69.94Z"/><rect class="cls-4" x="28.42" y="30.47" width="18.33" height="22.4"/><rect class="cls-4" x="59.2" y="30.47" width="18.33" height="22.4"/><rect class="cls-4" x="28.42" y="63.83" width="18.33" height="22.4"/><rect class="cls-4" x="59.2" y="63.83" width="18.33" height="22.4"/><rect class="cls-4" x="28.21" y="97.19" width="18.33" height="22.4"/><circle class="cls-5" cx="51.08" cy="208.59" r="12.55"/><circle class="cls-6" cx="86.18" cy="208.59" r="12.55"/><circle class="cls-7" cx="121.28" cy="208.59" r="12.55"/><circle class="cls-8" cx="156.38" cy="208.59" r="12.55"/><circle class="cls-9" cx="191.48" cy="208.59" r="12.55"/><circle class="cls-10" cx="226.58" cy="208.59" r="12.55"/><circle class="cls-11" cx="261.68" cy="208.59" r="12.55"/><circle class="cls-12" cx="296.78" cy="208.59" r="12.55"/><circle class="cls-13" cx="331.88" cy="208.59" r="12.55"/><circle class="cls-14" cx="366.98" cy="208.59" r="12.55"/></svg>