<svg id="Layer_4" data-name="Layer 4" xmlns="http://www.w3.org/2000/svg" viewBox="0 0 421.96 327.56"><defs><style>.cls-1{fill:#231f20;}</style></defs><title>y</title><path class="cls-1" d="M414.14,0H7.82A7.82,7.82,0,0,0,0,7.82V249.38a7.82,7.82,0,0,0,7.82,7.81H414.14a7.82,7.82,0,0,0,7.82-7.81V7.82A7.82,7.82,0,0,0,414.14,0Zm-9.2,233.92a2.86,2.86,0,0,1-2.86,2.86H19.77a2.86,2.86,0,0,1-2.86-2.86V19.56a2.86,2.86,0,0,1,2.86-2.86H402.08a2.86,2.86,0,0,1,2.86,2.86Z"/><path class="cls-1" d="M170,265h81.46s3.37,34.55,8.14,38.48,13.77,13.77,13.77,13.77v5.61H203.4Z"/><path class="cls-1" d="M251,265H169.58s-3.37,34.55-8.15,38.48-13.76,13.77-13.76,13.77v5.61h69.94Z"/></svg>