<svg xmlns="http://www.w3.org/2000/svg" viewBox="0 0 298.39 294.76"><defs><style>.cls-1,.cls-2,.cls-3{fill:none;stroke:#231f20;stroke-linecap:round;stroke-linejoin:round;}.cls-1{stroke-width:11px;}.cls-2{stroke-width:8px;}.cls-3{stroke-width:4px;}</style></defs><title>football</title><g id="Layer_2" data-name="Layer 2"><path class="cls-1" d="M6.16,288.74S-22.16-12.53,291.13,6.35C291.13,6.35,333.19,303.33,6.16,288.74Z"/><path class="cls-2" d="M6.16,288.74S84.16,83,292.89,13.64"/><path class="cls-2" d="M55.58,174.61s3.47,19.53,20.4,21.26"/><path class="cls-2" d="M68.17,151.19S76,169.83,94.21,179"/><line class="cls-2" x1="83.36" y1="133.38" x2="110.26" y2="163.32"/><line class="cls-2" x1="100.28" y1="114.71" x2="128.49" y2="143.79"/><line class="cls-2" x1="117.21" y1="97.35" x2="146.29" y2="126.87"/><path class="cls-2" d="M136.3,82.16s17.8,12.16,27.35,28.21"/><path class="cls-2" d="M156.5,69.14S175.37,80,179.27,91.28"/><path class="cls-3" d="M176,16.23s86.38,52.2,104.75,109.92"/><path class="cls-3" d="M210.87,5.5S281.38,50.55,290,82.16"/><path class="cls-3" d="M11.64,223.93S30.35,269,70.41,286.13"/><path class="cls-3" d="M18.23,182.82S47.74,253.19,112.57,278"/></g></svg>