<svg xmlns="http://www.w3.org/2000/svg" viewBox="0 0 298.39 294.76"><defs><style>.cls-1{fill:#754c29;}.cls-2,.cls-3,.cls-4,.cls-5{fill:none;stroke:#231f20;}.cls-2,.cls-3,.cls-4{stroke-linecap:round;stroke-linejoin:round;}.cls-2{stroke-width:11px;}.cls-3{stroke-width:8px;}.cls-4,.cls-5{stroke-width:4px;}.cls-5{stroke-miterlimit:10;}</style></defs><title>football_colour</title><g id="Layer_2" data-name="Layer 2"><path class="cls-1" d="M112.57,278c-2.23-.85-4.41-1.76-6.56-2.71a143.83,143.83,0,0,1-26.32-15.34,171.71,171.71,0,0,1-20.45-17.68c-3.88-3.92-7.47-7.89-10.78-11.84a218.27,218.27,0,0,1-22.37-32.17,157.56,157.56,0,0,1-7.86-15.4l23.47-58.5,34-46.13,56.84-48.63L176,17.87l15.53,7.21,27.32,21.27,23.79,24.84,31.09,36,9.58,21.14-23,55.77-48.27,52.65-69.92,38.67Z"/><polygon class="cls-1" points="215.59 10.75 235.36 21.45 257.25 39.23 281.86 67.45 291.68 72.74 294.29 16.73 280.37 2.87 243.38 3.49 215.59 10.75"/><polygon class="cls-1" points="11.64 220.78 24.89 251.98 36.83 260.27 66.88 287.68 6.16 290.76 5.5 228.09 11.64 220.78"/><path class="cls-2" d="M6.16,288.74S-22.16-12.53,291.13,6.35C291.13,6.35,333.19,303.33,6.16,288.74Z"/><path class="cls-3" d="M6.16,288.74S84.16,83,292.89,13.64"/><path class="cls-3" d="M55.58,174.61s3.47,19.53,20.4,21.26"/><path class="cls-3" d="M68.17,151.19S76,169.83,94.21,179"/><line class="cls-3" x1="83.36" y1="133.38" x2="110.26" y2="163.32"/><line class="cls-3" x1="100.28" y1="114.71" x2="128.49" y2="143.79"/><line class="cls-3" x1="117.21" y1="97.35" x2="146.29" y2="126.87"/><path class="cls-3" d="M136.3,82.16s17.8,12.16,27.35,28.21"/><path class="cls-3" d="M156.5,69.14S175.37,80,179.27,91.28"/><path class="cls-4" d="M176,16.23s86.38,52.2,104.75,109.92"/><path class="cls-4" d="M210.87,5.5S281.38,50.55,290,82.16"/><path class="cls-4" d="M11.64,223.93S30.35,269,70.41,286.13"/><path class="cls-5" d="M18.23,182.82S51.47,256.87,112.57,278"/></g></svg>