<svg id="Layer_6" data-name="Layer 6" xmlns="http://www.w3.org/2000/svg" viewBox="0 0 421.96 348.59"><defs><style>.cls-1{fill:#231f20;}</style></defs><title>y</title><path class="cls-1" d="M315.36,0H106.6A23.09,23.09,0,0,0,83.51,23.09V316A23.09,23.09,0,0,0,106.6,339H315.36A23.09,23.09,0,0,0,338.45,316V23.09A23.09,23.09,0,0,0,315.36,0ZM212,333.25a10.68,10.68,0,1,1,10.68-10.68A10.68,10.68,0,0,1,212,333.25ZM325,303.4a2,2,0,0,1-2.06,2.05H100.54a2,2,0,0,1-2.05-2.05v-267a2,2,0,0,1,2.05-2.06h222.4A2.06,2.06,0,0,1,325,36.39Z"/></svg>