<svg id="Layer_6" data-name="Layer 6" xmlns="http://www.w3.org/2000/svg" xmlns:xlink="http://www.w3.org/1999/xlink" viewBox="0 0 421.96 348.59"><defs><style>.cls-1{fill:url(#linear-gradient);}.cls-2{fill:#e2e2e2;}.cls-3{fill:#a565a9;}.cls-4{fill:#a9a8a9;}.cls-5{fill:#56ba53;}.cls-6{fill:#84a865;}.cls-7{fill:#e8e340;}.cls-8{fill:#3f6bb3;}.cls-9{fill:#b755a0;}.cls-10{fill:#d67228;}.cls-11{fill:#31c0cc;}.cls-12{fill:#8751a0;}.cls-13{fill:#fff;}.cls-14{fill:#171d4a;}.cls-15{fill:#ed1d33;}.cls-16{fill:#231f20;}</style><linearGradient id="linear-gradient" x1="347.7" y1="292.83" x2="76.86" y2="21.99" gradientUnits="userSpaceOnUse"><stop offset="0.1" stop-color="#00aeef"/><stop offset="0.76" stop-color="#1b75bc"/></linearGradient></defs><title>y</title><rect class="cls-1" x="92.79" y="6.05" width="238.97" height="302.71"/><rect class="cls-2" x="173.43" y="65.83" width="25.55" height="25.55" rx="5.53"/><rect class="cls-3" x="230.98" y="65.83" width="25.55" height="25.55" rx="5.53"/><rect class="cls-4" x="278.53" y="65.83" width="25.55" height="25.55" rx="5.53"/><rect class="cls-5" x="115.88" y="65.83" width="25.55" height="25.55" rx="5.53"/><rect x="173.43" y="119.99" width="25.55" height="25.55" rx="5.53"/><rect class="cls-6" x="230.98" y="119.99" width="25.55" height="25.55" rx="5.53"/><rect class="cls-7" x="278.53" y="119.99" width="25.55" height="25.55" rx="5.53"/><rect class="cls-8" x="115.88" y="119.99" width="25.55" height="25.55" rx="5.53"/><rect class="cls-9" x="173.43" y="174.15" width="25.55" height="25.55" rx="5.53"/><rect class="cls-10" x="230.98" y="174.15" width="25.55" height="25.55" rx="5.53"/><rect class="cls-11" x="278.53" y="174.15" width="25.55" height="25.55" rx="5.53"/><rect x="115.88" y="174.15" width="25.55" height="25.55" rx="5.53"/><rect class="cls-12" x="173.43" y="228.31" width="25.55" height="25.55" rx="5.53"/><rect class="cls-13" x="230.98" y="228.31" width="25.55" height="25.55" rx="5.53"/><rect class="cls-14" x="278.53" y="228.31" width="25.55" height="25.55" rx="5.53"/><rect class="cls-15" x="115.88" y="228.31" width="25.55" height="25.55" rx="5.53"/><path class="cls-16" d="M315.36,0H106.6A23.09,23.09,0,0,0,83.51,23.09V316A23.09,23.09,0,0,0,106.6,339H315.36A23.09,23.09,0,0,0,338.45,316V23.09A23.09,23.09,0,0,0,315.36,0ZM212,333.25a10.68,10.68,0,1,1,10.68-10.68A10.68,10.68,0,0,1,212,333.25ZM325,303.4a2,2,0,0,1-2.06,2.05H100.54a2,2,0,0,1-2.05-2.05v-267a2,2,0,0,1,2.05-2.06h222.4A2.06,2.06,0,0,1,325,36.39Z"/></svg>