<svg id="iphone" xmlns="http://www.w3.org/2000/svg" viewBox="0 0 167.83 326.94"><defs><style>.cls-1{fill:#231f20;}</style></defs><title>Artboard 1</title><g id="Layer_2" data-name="Layer 2"><path class="cls-1" d="M141.45,0H26.38A26.38,26.38,0,0,0,0,26.38V300.56a26.38,26.38,0,0,0,26.38,26.38H141.45a26.38,26.38,0,0,0,26.38-26.38V26.38A26.38,26.38,0,0,0,141.45,0Zm16.73,302.58A14.14,14.14,0,0,1,144,316.72H23.87A14.15,14.15,0,0,1,9.72,302.58V23.63A14.15,14.15,0,0,1,23.87,9.49H144a14.14,14.14,0,0,1,14.15,14.14Z"/><path class="cls-1" d="M36.22,9.49a4.54,4.54,0,0,1,4.55,2.91c1.32,3.24,1.11,5.94,7.32,8.42H83.91V9.48Z"/><path class="cls-1" d="M131.65,9.49a4.55,4.55,0,0,0-4.56,2.91c-1.31,3.24-1.1,5.94-7.32,8.42H84V9.48Z"/></g></svg>