<svg id="iphone" xmlns="http://www.w3.org/2000/svg" xmlns:xlink="http://www.w3.org/1999/xlink" viewBox="0 0 167.83 326.94"><defs><style>.cls-1{fill:url(#linear-gradient);}.cls-2{fill:#231f20;}.cls-3{fill:#e2e2e2;}.cls-4{fill:#a565a9;}.cls-5{fill:#a9a8a9;}.cls-6{fill:#56ba53;}.cls-7{fill:#84a865;}.cls-8{fill:#e8e340;}.cls-9{fill:#3f6bb3;}.cls-10{fill:#b755a0;}.cls-11{fill:#d67228;}.cls-12{fill:#31c0cc;}.cls-13{fill:#8751a0;}.cls-14{fill:#b5b5b6;opacity:0.9;}.cls-15{fill:#fff;}.cls-16{fill:#171d4a;}.cls-17{fill:#ed1d33;}</style><linearGradient id="linear-gradient" x1="195.66" y1="275.21" x2="-27.83" y2="51.73" gradientUnits="userSpaceOnUse"><stop offset="0.1" stop-color="#00aeef"/><stop offset="0.76" stop-color="#1b75bc"/></linearGradient></defs><title>Artboard 1</title><rect class="cls-1" width="167.83" height="326.94" rx="40.8"/><g id="Layer_2" data-name="Layer 2"><path class="cls-2" d="M141.45,0H26.38A26.38,26.38,0,0,0,0,26.38V300.56a26.38,26.38,0,0,0,26.38,26.38H141.45a26.38,26.38,0,0,0,26.38-26.38V26.38A26.38,26.38,0,0,0,141.45,0Zm16.73,302.58A14.14,14.14,0,0,1,144,316.72H23.87A14.15,14.15,0,0,1,9.72,302.58V23.63A14.15,14.15,0,0,1,23.87,9.49H144a14.14,14.14,0,0,1,14.15,14.14Z"/><path class="cls-2" d="M36.22,9.49a4.54,4.54,0,0,1,4.55,2.91c1.32,3.24,1.11,5.94,7.32,8.42H83.91V9.48Z"/><path class="cls-2" d="M131.65,9.49a4.6,4.6,0,0,0-4.6,2.91c-1.33,3.24-1.12,5.94-7.4,8.42H83.48V9.48Z"/></g><rect class="cls-3" x="52.45" y="44.18" width="25.55" height="25.55" rx="5.53"/><rect class="cls-4" x="90" y="44.18" width="25.55" height="25.55" rx="5.53"/><rect class="cls-5" x="127.55" y="44.18" width="25.55" height="25.55" rx="5.53"/><rect class="cls-6" x="14.9" y="44.18" width="25.55" height="25.55" rx="5.53"/><rect x="52.45" y="98.34" width="25.55" height="25.55" rx="5.53"/><rect class="cls-7" x="90" y="98.34" width="25.55" height="25.55" rx="5.53"/><rect class="cls-8" x="127.55" y="98.34" width="25.55" height="25.55" rx="5.53"/><rect class="cls-9" x="14.9" y="98.34" width="25.55" height="25.55" rx="5.53"/><rect class="cls-10" x="52.45" y="152.5" width="25.55" height="25.55" rx="5.53"/><rect class="cls-11" x="90" y="152.5" width="25.55" height="25.55" rx="5.53"/><rect class="cls-12" x="127.55" y="152.5" width="25.55" height="25.55" rx="5.53"/><rect x="14.9" y="152.5" width="25.55" height="25.55" rx="5.53"/><rect class="cls-13" x="52.45" y="206.66" width="25.55" height="25.55" rx="5.53"/><rect class="cls-14" x="14.9" y="286.11" width="138.2" height="25.55" rx="5.53"/><rect class="cls-15" x="90" y="206.66" width="25.55" height="25.55" rx="5.53"/><rect class="cls-16" x="127.55" y="206.66" width="25.55" height="25.55" rx="5.53"/><rect class="cls-17" x="14.9" y="206.66" width="25.55" height="25.55" rx="5.53"/></svg>