<svg id="Layer_1" data-name="Layer 1" xmlns="http://www.w3.org/2000/svg" viewBox="0 0 325.55 318.96"><defs><style>.cls-1{fill:#00aeef;}.cls-2{fill:#189953;}.cls-3{fill:#e0e32e;}.cls-4{fill:#dd3330;}</style></defs><title>logo</title><path class="cls-1" d="M67.61,33.44s103.41-87.16,215,20C249.82,19.58,41.15,14.48,52.46,163.45,52.46,163.45,31.46,87.78,67.61,33.44Z"/><path class="cls-2" d="M294.13,67.68s84.95,105.23-24.5,214.48c34.49-32,44-240.53-105.15-232.38C164.48,49.78,240.57,30.38,294.13,67.68Z"/><path class="cls-3" d="M250.78,290.44S142.93,372,37.18,259.21c30.91,35.48,239,51.55,235.57-97.8C272.75,161.41,289.74,238.08,250.78,290.44Z"/><path class="cls-4" d="M35.51,252.81S-53.82,151.27,50.9,37.49C17.8,70.93,17.11,279.66,165.8,265.2,165.8,265.2,90.59,287.81,35.51,252.81Z"/></svg>