<svg xmlns="http://www.w3.org/2000/svg" viewBox="0 0 298.39 294.76"><defs><style>.cls-1{fill:none;stroke:#231f20;stroke-linecap:round;stroke-linejoin:round;stroke-width:8px;}</style></defs><title>soccer</title><g id="Layer_2" data-name="Layer 2"><path class="cls-1" d="M42.16,181.48s-17.85,4.39-19.4-10.09,6.46-61.3,6.46-61.3,13.19,20.43,28.2,23.28,35.43-6.21,35.43-6.21,20.43-19.4,22-27.42c0,0,138.89,56.91,152.86,55.1,0,0,21.47,13.45-7.24,24.83l-4.4,12.41-7.76-9.57-15,3.62-5.43,11.38-7.5-10.08-16.82,2.07-4.65,11.64-7.24-11.64-18.11.25-6.21,11.39-5.69-10.35L119.49,183l-27.67-.26-7.5,14-9.06-14.49-18.62.26-7.5,13.71Z"/><line class="cls-1" x1="131.41" y1="120.1" x2="143.43" y2="111.27"/><line class="cls-1" x1="152.05" y1="128.59" x2="164.43" y2="119.58"/><line class="cls-1" x1="172.13" y1="136.79" x2="185.04" y2="127.59"/><line class="cls-1" x1="193.06" y1="144.14" x2="205.57" y2="135.38"/></g></svg>