<svg xmlns="http://www.w3.org/2000/svg" viewBox="0 0 298.39 294.76"><defs><style>.cls-1{fill:#8dc63f;}.cls-2{fill:none;stroke:#231f20;stroke-linecap:round;stroke-linejoin:round;stroke-width:8px;}</style></defs><title>soccer_colour</title><g id="Layer_2" data-name="Layer 2"><polygon class="cls-1" points="30.72 117.43 25.86 148.67 24.7 172.63 28.64 178.18 45.65 183.04 50.86 197.05 60.46 183.74 78.63 182.24 86.39 197.05 93.56 180.96 140.2 184.55 163.92 190.8 168.59 198.85 175.38 188.25 191 192.07 200.5 200.64 205.57 186.86 222.83 187.33 230.35 195.31 240.65 182 249.33 180.73 259.17 188.83 264.49 175.41 277.46 168.58 269.59 152.96 216.47 140.8 155.59 118.35 116.47 98.56 81.97 134.79 50.85 135.38 33.52 112.86 30.72 117.43"/><path class="cls-2" d="M42.16,181.48s-17.85,4.39-19.4-10.09,6.46-61.3,6.46-61.3,13.19,20.43,28.2,23.28,35.43-6.21,35.43-6.21,20.43-19.4,22-27.42c0,0,138.89,56.91,152.86,55.1,0,0,21.47,13.45-7.24,24.83l-4.4,12.41-7.76-9.57-15,3.62-5.43,11.38-7.5-10.08-16.82,2.07-4.65,11.64-7.24-11.64-18.11.25-6.21,11.39-5.69-10.35L119.49,183l-27.67-.26-7.5,14-9.06-14.49-18.62.26-7.5,13.71Z"/><line class="cls-2" x1="131.41" y1="120.1" x2="143.43" y2="111.27"/><line class="cls-2" x1="152.05" y1="128.59" x2="164.43" y2="119.58"/><line class="cls-2" x1="172.13" y1="136.79" x2="185.04" y2="127.59"/><line class="cls-2" x1="193.06" y1="144.14" x2="205.57" y2="135.38"/></g></svg>